Coordinates
nRows=17
nColumns=24

# SIMM Motion File Header:
name Coordinates
datacolumns 24
datarows 17
otherdata 1
range 1.05533000000000010000 1.07133000000000010000
endheader
time	pelvis_tx	pelvis_ty	pelvis_tz	pelvis_tilt	pelvis_list	pelvis_rotation	hip_flexion_r	hip_adduction_r	hip_rotation_r	knee_angle_r	ankle_angle_r	subtalar_angle_r	mtp_angle_r	hip_flexion_l	hip_adduction_l	hip_rotation_l	knee_angle_l	ankle_angle_l	subtalar_angle_l	mtp_angle_l	lumbar_extension	lumbar_bending	lumbar_rotation
      1.05533000000000010000	      1.33249092322827220000	      0.95438683216288733000	     -0.23163876991127164000	      0.94714941505217309000	      4.81300689877659770000	     -4.47959813517582720000	     19.41594396695433400000	     -5.32622719882714080000	     14.19882537867302800000	    -51.40132909642594700000	     -2.13491036227429510000	      0.00000000000024297450	     -0.00000000000020970566	     -0.51978009291327498000	      9.42241226593389670000	      5.81945833870292000000	     -0.97653740710183767000	      3.48107447293142910000	      0.00000000000010324665	     -0.00000000000024630941	     -4.42789719266783880000	     -4.42242322937529140000	      3.85473301566447590000
      1.05633000000000000000	      1.33304036420541580000	      0.95437847989264901000	     -0.23170534527882850000	      0.94661084815681018000	      4.78719445980335760000	     -4.46344503985260750000	     19.51420530035521500000	     -5.29407142451387710000	     14.15823008972545500000	    -51.30127476723124900000	     -2.07200924076121410000	      0.00000000000024362603	     -0.00000000000021098928	     -0.55888923755033093000	      9.40545949467323260000	      5.81642918618534920000	     -0.98639902478139330000	      3.52214831795532350000	      0.00000000000010342140	     -0.00000000000024708652	     -4.44760205065897910000	     -4.39934108879339640000	      3.84985969673788600000
      1.05733000000000010000	      1.33358980518255940000	      0.95437012762241058000	     -0.23177192064638535000	      0.94607228126144693000	      4.76138202083011210000	     -4.44729194452938440000	     19.61246663375611400000	     -5.26191565020060730000	     14.11763480077787300000	    -51.20122043803652200000	     -2.00910811924811880000	      0.00000000000024427756	     -0.00000000000021227289	     -0.59799838218739509000	      9.38850672341256500000	      5.81340003366777760000	     -0.99626064246095158000	      3.56322216297922710000	      0.00000000000010359615	     -0.00000000000024786362	     -4.46730690865012290000	     -4.37625894821149510000	      3.84498637781129430000
      1.05833000000000000000	      1.33413892321522210000	      0.95436065737260678000	     -0.23183856853171889000	      0.94550475581438453000	      4.73562839776229700000	     -4.43084533611751840000	     19.71016490733237700000	     -5.23023472560404020000	     14.07550626973606000000	    -51.09952529681962100000	     -1.94638794256111810000	      0.00000000000024493711	     -0.00000000000021357024	     -0.63684720890148971000	      9.37164220479026260000	      5.81013670185098710000	     -1.00639843371537840000	      3.60434467399926550000	      0.00000000000010376610	     -0.00000000000024863956	     -4.48701862088627660000	     -4.35321585777150680000	      3.83960279787695450000
      1.05933000000000010000	      1.33468771830340380000	      0.95435006914323750000	     -0.23190528893482912000	      0.94490827181562265000	      4.70993359059990000000	     -4.41410521461700170000	     19.80730012108404400000	     -5.19902865072416630000	     14.03184449659998700000	    -50.99618934358049000000	     -1.88384871070018560000	      0.00000000000024560468	     -0.00000000000021488134	     -0.67543571769263022000	      9.35486593880631820000	      5.80663919073497500000	     -1.01681239854468040000	      3.64551585101545730000	      0.00000000000010393124	     -0.00000000000024941431	     -4.50673718736744980000	     -4.33021181747341990000	      3.83370895693485950000
      1.06033000000000000000	      1.33523651339158560000	      0.95433948091386811000	     -0.23197200933793935000	      0.94431178781686076000	      4.68423878343750920000	     -4.39736509311648850000	     19.90443533483568900000	     -5.16782257584429950000	     13.98818272346392400000	    -50.89285339034137900000	     -1.82130947883926670000	      0.00000000000024627225	     -0.00000000000021619243	     -0.71402422648376218000	      9.33808967282237750000	      5.80314167961896300000	     -1.02722636337398020000	      3.68668702803163970000	      0.00000000000010409637	     -0.00000000000025018907	     -4.52645575384861760000	     -4.30720777717533830000	      3.82781511599276620000
      1.06133000000000010000	      1.33578485893142540000	      0.95432684551167113000	     -0.23203903162792044000	      0.94375704362678181000	      4.65869448620330930000	     -4.38003374134071160000	     20.00026565783604600000	     -5.13763739747662380000	     13.94154016186898600000	    -50.78615958788827100000	     -1.75928641369529930000	      0.00000000000024694904	     -0.00000000000021755296	     -0.75223834863147543000	      9.32154051073111670000	      5.79935280632518870000	     -1.03815950013494040000	      3.72736907108627150000	      0.00000000000010426214	     -0.00000000000025100318	     -4.54627283842338500000	     -4.28428519273326640000	      3.82086030582879130000
      1.06233000000000000000	      1.33633320447126500000	      0.95431421010947415000	     -0.23210605391790154000	      0.94320229943670297000	      4.63315018896911560000	     -4.36270238956493730000	     20.09609598083637400000	     -5.10745221910895800000	     13.89489760027404900000	    -50.67946578543517000000	     -1.69726334855134660000	      0.00000000000024762584	     -0.00000000000021891350	     -0.79045247077917913000	      9.30499134863985940000	      5.79556393303141440000	     -1.04909263689589970000	      3.76805111414089260000	      0.00000000000010442791	     -0.00000000000025181729	     -4.56608992299814800000	     -4.26136260829120060000	      3.81390549566481510000
      1.06333000000000010000	      1.33688142123220200000	      0.95430066865659513000	     -0.23217325625077193000	      0.94270282832039154000	      4.60769654023363100000	     -4.34510754350644120000	     20.19124544726789600000	     -5.07777481146684730000	     13.84690543530474300000	    -50.57116209367646300000	     -1.63547597437081630000	      0.00000000000024830371	     -0.00000000000022029740	     -0.82854153294335486000	      9.28857557655259750000	      5.79168572356943030000	     -1.06026396205122620000	      3.80820649215326720000	      0.00000000000010459781	     -0.00000000000025261440	     -4.58597907200044740000	     -4.23848718203966880000	      3.80645048247830960000
      1.06433000000000000000	      1.33742950921423610000	      0.95428622115303408000	     -0.23224063862653158000	      0.94225863027784817000	      4.58233353999686700000	     -4.32724920316522880000	     20.28571405713055500000	     -5.04860517455031220000	     13.79756366696106800000	    -50.46124851261216500000	     -1.57392429115373880000	      0.00000000000024898266	     -0.00000000000022170465	     -0.86650553512398398000	      9.27229319446933960000	      5.78771817793923930000	     -1.07167347560091830000	      3.84783520512336970000	      0.00000000000010477186	     -0.00000000000025339449	     -4.60594028543027450000	     -4.21565891397868330000	      3.79849526626927100000
      1.06533000000000010000	      1.33797757430159340000	      0.95427132972973727000	     -0.23230814941780825000	      0.94184170514984022000	      4.55702040262382370000	     -4.30925310554569840000	     20.37982759643042700000	     -5.01969910348669400000	     13.74756793400290200000	    -50.35051939723941000000	     -1.51248011157437560000	      0.00000000000024966554	     -0.00000000000022311442	     -0.90440924189669225000	      9.25608398522916610000	      5.78374687920038430000	     -1.08321480506610680000	      3.88714966852585510000	      0.00000000000010494465	     -0.00000000000025416130	     -4.62593076186084230000	     -4.19285069321376100000	      3.79028203842937470000
      1.06633000000000000000	      1.33852557070492040000	      0.95425510654723311000	     -0.23237604545563589000	      0.94150659876543896000	      4.53185685384196100000	     -4.29084373609122590000	     20.47287592404184400000	     -4.99158372998185750000	     13.69561030720129900000	    -50.23734367894135000000	     -1.45135844290821180000	      0.00000000000025036026	     -0.00000000000022453171	     -0.94213206244560388000	      9.24009429451825960000	      5.77976432113554410000	     -1.09515158227777580000	      3.92552138322544900000	      0.00000000000010511365	     -0.00000000000025488827	     -4.64600902729361650000	     -4.17010261433704970000	      3.78129477569690620000
      1.06733000000000010000	      1.33907356710824740000	      0.95423888336472895000	     -0.23244394149346356000	      0.94117149238103759000	      4.50669330506009300000	     -4.27243436663674900000	     20.56592425165327900000	     -4.96346835647701390000	     13.64365268039968800000	    -50.12416796064326300000	     -1.39023677424203450000	      0.00000000000025105498	     -0.00000000000022594900	     -0.97985488299452383000	      9.22410460380735130000	      5.77578176307070290000	     -1.10708835948944720000	      3.96389309792505130000	      0.00000000000010528266	     -0.00000000000025561524	     -4.66608729272639610000	     -4.14735453546033380000	      3.77230751296443630000
      1.06833000000000000000	      1.33962161439893830000	      0.95422118904326814000	     -0.23251233445768527000	      0.94085996458627075000	      4.48168614562056260000	     -4.25358995561814890000	     20.65788110854613900000	     -4.93618376982269510000	     13.58972330538019000000	    -50.00838383050305700000	     -1.32949689309863000000	      0.00000000000025174367	     -0.00000000000022733509	     -1.01732313728773740000	      9.20834525921845600000	      5.77192053235516940000	     -1.11950504767871890000	      4.00162810861256090000	      0.00000000000010544311	     -0.00000000000025632907	     -4.68616505909574240000	     -4.12463858368578240000	      3.76251714304707010000
      1.06933000000000010000	      1.34016967865208400000	      0.95420300434215510000	     -0.23258089306403831000	      0.94055629632138193000	      4.45673111596180420000	     -4.23460053074483510000	     20.74947414186616300000	     -4.90917611211854600000	     13.53513668095470700000	    -49.89173022974876700000	     -1.26888427446279950000	      0.00000000000025243036	     -0.00000000000022871078	     -1.05470653616239240000	      9.19266269667022760000	      5.76809974408940370000	     -1.13208170619386220000	      4.03915088462938240000	      0.00000000000010560070	     -0.00000000000025703852	     -4.70624265911061630000	     -4.10193334094527980000	      3.75245907073473320000
      1.07033000000000000000	      1.34071779874300700000	      0.95418428425459234000	     -0.23264961576963977000	      0.94022801542206069000	      4.43182290165859880000	     -4.21548487667527730000	     20.84073318759099900000	     -4.88242724000007390000	     13.47994727944557200000	    -49.77420552190821500000	     -1.20843261026364530000	      0.00000000000025311756	     -0.00000000000023008042	     -1.09197322997419800000	      9.17704968301541160000	      5.76434408292114940000	     -1.14483464466643920000	      4.07668013010995090000	      0.00000000000010575537	     -0.00000000000025773771	     -4.72627452360970860000	     -4.07922407725799110000	      3.74215895997458590000
      1.07133000000000010000	      1.34126608634726190000	      0.95416395800768061000	     -0.23271883077298652000	      0.93982589661944071000	      4.40705513342203400000	     -4.19599053501696590000	     20.93099027053035100000	     -4.85645472463862140000	     13.42294954668540400000	    -49.65406749280873600000	     -1.14846380937447210000	      0.00000000000025380631	     -0.00000000000023143188	     -1.12888980859748390000	      9.16164531604082200000	      5.76078380304542930000	     -1.15811642301133520000	      4.11422878398179300000	      0.00000000000010590125	     -0.00000000000025840610	     -4.74616918156146820000	     -4.05650275073032240000	      3.73113273387098810000
